<?xml version="1.0" encoding="utf-8"?>
<svg viewBox="0 0 14.59 21.885" fill="none" xmlns="http://www.w3.org/2000/svg">
	<path class="path" d="M7.867 1.62902C7.867 1.53169 7.76995 1.43436 7.6729 1.43436H5.41652C5.31947 1.43436 5.22243 1.53169 5.22243 1.62902V12.7975L0.0545898 17.9803C-0.0181966 18.0533 -0.0181966 18.175 0.0545898 18.248L1.65589 19.8539C1.72868 19.9269 1.84999 19.9269 1.94704 19.8539L7.81847 13.9412C7.867 13.8925 7.867 13.8438 7.867 13.7952V1.62902Z" fill="white" />
	<path class="path" d="M11.1666 19.8539L8.5706 17.226C8.49781 17.153 8.49781 17.0314 8.5706 16.9584L10.1719 15.3524C10.2447 15.2794 10.366 15.2794 10.4388 15.3524L13.0348 17.9803C13.1076 18.0533 13.1076 18.175 13.0348 18.248L11.4578 19.8539C11.3607 19.9512 11.2394 19.9512 11.1666 19.8539Z" fill="white" />
	<path class="path" d="M11.0453 8.36907L6.67815 3.96493C6.60537 3.89193 6.48406 3.89193 6.38701 3.96493L2.04409 8.36907C1.9713 8.44207 1.84999 8.44207 1.75294 8.36907L0.175901 6.76314C0.103114 6.69014 0.103114 6.56848 0.175901 6.49549L6.41127 0.19342C6.48406 0.120423 6.60537 0.120423 6.70242 0.19342L12.9378 6.49549C13.0106 6.56848 13.0106 6.69014 12.9378 6.76314L11.3365 8.36907C11.2394 8.4664 11.1181 8.4664 11.0453 8.36907Z" fill="white" />
</svg>
